<svg width="150" height="108" viewBox="0 0 150 108" fill="none" xmlns="http://www.w3.org/2000/svg">
<path d="M32.8551 88.7898C26.9105 88.7685 21.7756 87.3942 17.4503 84.6669C13.125 81.9396 9.79048 78.0085 7.44673 72.8736C5.10298 67.7386 3.94176 61.581 3.96307 54.4006C3.98438 47.1989 5.15625 41.0838 7.47869 36.0554C9.82244 31.027 13.1463 27.2024 17.4503 24.5817C21.7756 21.9609 26.9105 20.6506 32.8551 20.6506C38.7997 20.6506 43.9347 21.9716 48.2599 24.6136C52.5852 27.2344 55.9197 31.0589 58.2635 36.0874C60.6072 41.1158 61.7685 47.2202 61.7472 54.4006C61.7472 61.6236 60.5753 67.8026 58.2315 72.9375C55.8878 78.0724 52.5533 82.0036 48.228 84.7308C43.924 87.4368 38.7997 88.7898 32.8551 88.7898ZM32.8551 74.3438C35.9233 74.3438 38.4375 72.7457 40.3977 69.5497C42.3793 66.3324 43.3594 61.2827 43.3381 54.4006C43.3381 49.9048 42.8906 46.2294 41.9957 43.3743C41.1009 40.5192 39.8651 38.4098 38.2884 37.0462C36.7116 35.6612 34.9006 34.9688 32.8551 34.9688C29.7869 34.9688 27.2834 36.5241 25.3445 39.6349C23.4055 42.7457 22.4148 47.6676 22.3722 54.4006C22.3509 58.9815 22.7876 62.7528 23.6825 65.7145C24.5774 68.6548 25.8132 70.8281 27.3899 72.2344C28.9879 73.6406 30.8097 74.3438 32.8551 74.3438ZM102.177 21.5455V87H84.407V37.9091H84.0234L69.7053 46.4744V31.3892L85.8132 21.5455H102.177Z" fill="white"/>
<path d="M124.621 56.5977C122.463 56.5977 121.367 55.5489 120.396 54.6258C119.525 53.7937 118.836 53.1306 117.371 53.1306C115.906 53.1306 115.217 53.7893 114.346 54.6258C113.379 55.5489 112.283 56.5977 110.12 56.5977C107.958 56.5977 106.865 55.5489 105.895 54.6258C105.024 53.7937 104.334 53.1306 102.87 53.1306C101.405 53.1306 100.716 53.7893 99.8446 54.6258C98.8781 55.5489 97.7816 56.5977 95.6233 56.5977C93.4651 56.5977 92.3686 55.5489 91.4021 54.6258C90.6393 53.8934 89.9806 53.2649 88.7844 53.1523C88.3077 53.1089 87.9567 52.6842 88.0043 52.2075C88.0477 51.7307 88.4681 51.3797 88.9491 51.4274C90.7434 51.5964 91.7315 52.5412 92.6026 53.3733C93.4737 54.2054 94.1628 54.8685 95.6277 54.8685C97.0925 54.8685 97.7816 54.2097 98.6527 53.3733C99.6192 52.4502 100.716 51.4014 102.874 51.4014C105.032 51.4014 106.129 52.4502 107.095 53.3733C107.966 54.2054 108.655 54.8685 110.12 54.8685C111.585 54.8685 112.274 54.2097 113.145 53.3733C114.112 52.4502 115.208 51.4014 117.371 51.4014C119.533 51.4014 120.626 52.4502 121.596 53.3733C122.468 54.2054 123.157 54.8685 124.621 54.8685C126.086 54.8685 126.775 54.2097 127.647 53.3733C128.518 52.5412 129.506 51.5964 131.3 51.4274C131.772 51.3797 132.197 51.7307 132.245 52.2075C132.288 52.6842 131.941 53.1089 131.465 53.1523C130.273 53.2649 129.61 53.8977 128.847 54.6258C127.881 55.5489 126.784 56.5977 124.621 56.5977Z" fill="#79171D"/>
</svg>
