<svg width="150" height="108" viewBox="0 0 150 108" fill="none" xmlns="http://www.w3.org/2000/svg">
<path d="M32.8551 88.7898C26.9105 88.7685 21.7756 87.3942 17.4503 84.6669C13.125 81.9396 9.79048 78.0085 7.44673 72.8736C5.10298 67.7386 3.94176 61.581 3.96307 54.4006C3.98438 47.1989 5.15625 41.0838 7.47869 36.0554C9.82244 31.027 13.1463 27.2024 17.4503 24.5817C21.7756 21.9609 26.9105 20.6506 32.8551 20.6506C38.7997 20.6506 43.9347 21.9716 48.2599 24.6136C52.5852 27.2344 55.9197 31.0589 58.2635 36.0874C60.6072 41.1158 61.7685 47.2202 61.7472 54.4006C61.7472 61.6236 60.5753 67.8026 58.2315 72.9375C55.8878 78.0724 52.5533 82.0036 48.228 84.7308C43.924 87.4368 38.7997 88.7898 32.8551 88.7898ZM32.8551 74.3438C35.9233 74.3438 38.4375 72.7457 40.3977 69.5497C42.3793 66.3324 43.3594 61.2827 43.3381 54.4006C43.3381 49.9048 42.8906 46.2294 41.9957 43.3743C41.1009 40.5192 39.8651 38.4098 38.2884 37.0462C36.7116 35.6612 34.9006 34.9688 32.8551 34.9688C29.7869 34.9688 27.2834 36.5241 25.3445 39.6349C23.4055 42.7457 22.4148 47.6676 22.3722 54.4006C22.3509 58.9815 22.7876 62.7528 23.6825 65.7145C24.5774 68.6548 25.8132 70.8281 27.3899 72.2344C28.9879 73.6406 30.8097 74.3438 32.8551 74.3438ZM70.0888 87V74.2159L94.5064 54.017C96.1257 52.6747 97.5107 51.4176 98.6612 50.2457C99.8331 49.0526 100.728 47.8274 101.346 46.5703C101.985 45.3132 102.305 43.9176 102.305 42.3835C102.305 40.7003 101.942 39.2621 101.218 38.0689C100.515 36.8757 99.5348 35.9595 98.2777 35.3203C97.0206 34.6598 95.5717 34.3295 93.9311 34.3295C92.2905 34.3295 90.8416 34.6598 89.5845 35.3203C88.3487 35.9808 87.3899 36.9503 86.7081 38.2287C86.0263 39.5071 85.6854 41.0625 85.6854 42.8949H68.8104C68.8104 38.2926 69.8438 34.3295 71.9105 31.0057C73.9773 27.6818 76.8963 25.125 80.6676 23.3352C84.4389 21.5455 88.8601 20.6506 93.9311 20.6506C99.1726 20.6506 103.711 21.4922 107.546 23.1754C111.403 24.8374 114.375 27.1811 116.463 30.2067C118.572 33.2322 119.627 36.7798 119.627 40.8494C119.627 43.3636 119.105 45.8672 118.061 48.3601C117.017 50.8317 115.142 53.5696 112.436 56.5739C109.73 59.5781 105.884 63.1577 100.898 67.3125L94.7621 72.4261V72.8097H120.33V87H70.0888Z" fill="white"/>
<path d="M136.621 56.5977C134.463 56.5977 133.367 55.5489 132.396 54.6258C131.525 53.7937 130.836 53.1306 129.371 53.1306C127.906 53.1306 127.217 53.7893 126.346 54.6258C125.379 55.5489 124.283 56.5977 122.12 56.5977C119.958 56.5977 118.865 55.5489 117.895 54.6258C117.024 53.7937 116.334 53.1306 114.87 53.1306C113.405 53.1306 112.716 53.7893 111.845 54.6258C110.878 55.5489 109.782 56.5977 107.623 56.5977C105.465 56.5977 104.369 55.5489 103.402 54.6258C102.639 53.8934 101.981 53.2649 100.784 53.1523C100.308 53.1089 99.9567 52.6842 100.004 52.2075C100.048 51.7307 100.468 51.3797 100.949 51.4274C102.743 51.5964 103.731 52.5412 104.603 53.3733C105.474 54.2054 106.163 54.8685 107.628 54.8685C109.093 54.8685 109.782 54.2097 110.653 53.3733C111.619 52.4502 112.716 51.4014 114.874 51.4014C117.032 51.4014 118.129 52.4502 119.095 53.3733C119.966 54.2054 120.655 54.8685 122.12 54.8685C123.585 54.8685 124.274 54.2097 125.145 53.3733C126.112 52.4502 127.208 51.4014 129.371 51.4014C131.533 51.4014 132.626 52.4502 133.596 53.3733C134.468 54.2054 135.157 54.8685 136.621 54.8685C138.086 54.8685 138.775 54.2097 139.647 53.3733C140.518 52.5412 141.506 51.5964 143.3 51.4274C143.772 51.3797 144.197 51.7307 144.245 52.2075C144.288 52.6842 143.941 53.1089 143.465 53.1523C142.273 53.2649 141.61 53.8977 140.847 54.6258C139.881 55.5489 138.784 56.5977 136.621 56.5977Z" fill="#79171D"/>
</svg>
