<svg width="46" height="7" viewBox="0 0 46 7" fill="none" xmlns="http://www.w3.org/2000/svg">
<path d="M37.4965 6.10406C35.3382 6.10406 34.2417 5.05526 33.2709 4.13214C32.3998 3.30003 31.7107 2.63694 30.2459 2.63694C28.781 2.63694 28.0919 3.29569 27.2208 4.13214C26.2543 5.05526 25.1579 6.10406 22.9952 6.10406C20.8326 6.10406 19.7405 5.05526 18.7697 4.13214C17.8986 3.30003 17.2095 2.63694 15.7446 2.63694C14.2798 2.63694 13.5907 3.29569 12.7196 4.13214C11.7531 5.05526 10.6566 6.10406 8.49834 6.10406C6.34005 6.10406 5.24358 5.05526 4.27712 4.13214C3.51435 3.39971 2.8556 2.77129 1.65944 2.65861C1.18271 2.61527 0.831662 2.19055 0.879335 1.71382C0.922674 1.23709 1.34306 0.886044 1.82413 0.933717C3.61836 1.10274 4.60649 2.04753 5.47761 2.87964C6.34872 3.71175 7.03781 4.37484 8.50267 4.37484C9.96753 4.37484 10.6566 3.71608 11.5277 2.87964C12.4942 1.95652 13.5907 0.907715 15.749 0.907715C17.9072 0.907715 19.0037 1.95652 19.9702 2.87964C20.8413 3.71175 21.5304 4.37484 22.9952 4.37484C24.4601 4.37484 25.1492 3.71608 26.0203 2.87964C26.9868 1.95652 28.0833 0.907715 30.2459 0.907715C32.4085 0.907715 33.5006 1.95652 34.4714 2.87964C35.3425 3.71175 36.0316 4.37484 37.4965 4.37484C38.9613 4.37484 39.6504 3.71608 40.5216 2.87964C41.3927 2.04753 42.3808 1.10274 44.175 0.933717C44.6474 0.886044 45.0722 1.23709 45.1198 1.71382C45.1632 2.19055 44.8165 2.61527 44.3397 2.65861C43.1479 2.77129 42.4848 3.40404 41.722 4.13214C40.7556 5.05526 39.6591 6.10406 37.4965 6.10406Z" fill="white"/>
</svg>
