<svg width="151" height="108" viewBox="0 0 151 108" fill="none" xmlns="http://www.w3.org/2000/svg">
<path d="M33.6071 88.7898C27.6625 88.7685 22.5275 87.3942 18.2022 84.6669C13.877 81.9396 10.5424 78.0085 8.19869 72.8736C5.85494 67.7386 4.69371 61.581 4.71502 54.4006C4.73633 47.1989 5.9082 41.0838 8.23065 36.0554C10.5744 31.027 13.8983 27.2024 18.2022 24.5817C22.5275 21.9609 27.6625 20.6506 33.6071 20.6506C39.5517 20.6506 44.6866 21.9716 49.0119 24.6136C53.3372 27.2344 56.6717 31.0589 59.0154 36.0874C61.3592 41.1158 62.5204 47.2202 62.4991 54.4006C62.4991 61.6236 61.3272 67.8026 58.9835 72.9375C56.6397 78.0724 53.3052 82.0036 48.9799 84.7308C44.676 87.4368 39.5517 88.7898 33.6071 88.7898ZM33.6071 74.3438C36.6752 74.3438 39.1895 72.7457 41.1497 69.5497C43.1312 66.3324 44.1113 61.2827 44.09 54.4006C44.09 49.9048 43.6426 46.2294 42.7477 43.3743C41.8528 40.5192 40.617 38.4098 39.0403 37.0462C37.4636 35.6612 35.6525 34.9688 33.6071 34.9688C30.5389 34.9688 28.0353 36.5241 26.0964 39.6349C24.1575 42.7457 23.1667 47.6676 23.1241 54.4006C23.1028 58.9815 23.5396 62.7528 24.4345 65.7145C25.3294 68.6548 26.5652 70.8281 28.1419 72.2344C29.7399 73.6406 31.5616 74.3438 33.6071 74.3438ZM96.4089 87.8949C91.2527 87.8949 86.6717 87.0107 82.666 85.2422C78.6816 83.4524 75.5495 80.9915 73.2697 77.8594C70.9899 74.7273 69.8393 71.1264 69.818 67.0568H87.7157C87.737 68.3139 88.1206 69.4432 88.8663 70.4446C89.6333 71.4247 90.6774 72.1918 91.9984 72.7457C93.3194 73.2997 94.8322 73.5767 96.5368 73.5767C98.1774 73.5767 99.6262 73.2891 100.883 72.7138C102.14 72.1172 103.121 71.2969 103.824 70.2528C104.527 69.2088 104.868 68.0156 104.846 66.6733C104.868 65.3523 104.463 64.1804 103.632 63.1577C102.822 62.1349 101.682 61.3359 100.212 60.7607C98.742 60.1854 97.0481 59.8977 95.1305 59.8977H88.4828V47.625H95.1305C96.899 47.625 98.4544 47.3374 99.7967 46.7621C101.16 46.1868 102.215 45.3878 102.961 44.3651C103.728 43.3423 104.101 42.1705 104.079 40.8494C104.101 39.571 103.792 38.4418 103.153 37.4616C102.513 36.4815 101.618 35.7145 100.468 35.1605C99.3386 34.6065 98.0282 34.3295 96.5368 34.3295C94.9174 34.3295 93.4686 34.6172 92.1902 35.1925C90.9331 35.7678 89.9423 36.5668 89.2179 37.5895C88.4934 38.6122 88.1206 39.7841 88.0993 41.1051H71.0964C71.1177 37.0994 72.215 33.5625 74.3883 30.4943C76.5829 27.4261 79.5872 25.0185 83.4011 23.2713C87.215 21.5241 91.5936 20.6506 96.5368 20.6506C101.373 20.6506 105.645 21.4709 109.353 23.1115C113.082 24.7521 115.99 27.0107 118.078 29.8871C120.187 32.7422 121.231 36.0128 121.21 39.6989C121.253 43.3636 119.996 46.3679 117.439 48.7116C114.903 51.0554 111.686 52.4403 107.787 52.8665V53.3778C113.071 53.9531 117.045 55.5724 119.708 58.2358C122.371 60.8778 123.682 64.2017 123.639 68.2074C123.66 72.0426 122.51 75.4411 120.187 78.4027C117.886 81.3643 114.68 83.6868 110.567 85.37C106.476 87.0533 101.757 87.8949 96.4089 87.8949Z" fill="white"/>
<path d="M140.373 56.5987C138.215 56.5987 137.119 55.5499 136.148 54.6268C135.277 53.7947 134.588 53.1316 133.123 53.1316C131.658 53.1316 130.969 53.7903 130.098 54.6268C129.131 55.5499 128.035 56.5987 125.872 56.5987C123.71 56.5987 122.617 55.5499 121.647 54.6268C120.776 53.7947 120.086 53.1316 118.622 53.1316C117.157 53.1316 116.468 53.7903 115.597 54.6268C114.63 55.5499 113.534 56.5987 111.375 56.5987C109.217 56.5987 108.121 55.5499 107.154 54.6268C106.391 53.8943 105.733 53.2659 104.536 53.1532C104.06 53.1099 103.709 52.6852 103.756 52.2085C103.8 51.7317 104.22 51.3807 104.701 51.4283C106.495 51.5974 107.483 52.5422 108.355 53.3743C109.226 54.2064 109.915 54.8695 111.38 54.8695C112.844 54.8695 113.534 54.2107 114.405 53.3743C115.371 52.4511 116.468 51.4023 118.626 51.4023C120.784 51.4023 121.881 52.4511 122.847 53.3743C123.718 54.2064 124.407 54.8695 125.872 54.8695C127.337 54.8695 128.026 54.2107 128.897 53.3743C129.864 52.4511 130.96 51.4023 133.123 51.4023C135.285 51.4023 136.378 52.4511 137.348 53.3743C138.219 54.2064 138.909 54.8695 140.373 54.8695C141.838 54.8695 142.527 54.2107 143.399 53.3743C144.27 52.5422 145.258 51.5974 147.052 51.4283C147.524 51.3807 147.949 51.7317 147.997 52.2085C148.04 52.6852 147.693 53.1099 147.217 53.1532C146.025 53.2659 145.362 53.8987 144.599 54.6268C143.633 55.5499 142.536 56.5987 140.373 56.5987Z" fill="#79171D"/>
</svg>
