<svg width="46" height="6" viewBox="0 0 46 6" fill="none" xmlns="http://www.w3.org/2000/svg">
<path d="M37.4975 5.19635C35.3392 5.19635 34.2427 4.14754 33.2719 3.22442C32.4008 2.39231 31.7117 1.72923 30.2468 1.72923C28.782 1.72923 28.0929 2.38798 27.2218 3.22442C26.2553 4.14754 25.1588 5.19635 22.9962 5.19635C20.8336 5.19635 19.7415 4.14754 18.7707 3.22442C17.8996 2.39231 17.2105 1.72923 15.7456 1.72923C14.2807 1.72923 13.5917 2.38798 12.7205 3.22442C11.7541 4.14754 10.6576 5.19635 8.49931 5.19635C6.34103 5.19635 5.24455 4.14754 4.27809 3.22442C3.51533 2.49199 2.85657 1.86358 1.66041 1.7509C1.18369 1.70756 0.832639 1.28284 0.880312 0.806106C0.923651 0.329377 1.34404 -0.0216706 1.8251 0.0260024C3.61934 0.195025 4.60747 1.13981 5.47858 1.97192C6.3497 2.80403 7.03879 3.46712 8.50365 3.46712C9.96851 3.46712 10.6576 2.80837 11.5287 1.97192C12.4952 1.0488 13.5917 0 15.7499 0C17.9082 0 19.0047 1.0488 19.9712 1.97192C20.8423 2.80403 21.5314 3.46712 22.9962 3.46712C24.4611 3.46712 25.1502 2.80837 26.0213 1.97192C26.9877 1.0488 28.0842 0 30.2468 0C32.4095 0 33.5016 1.0488 34.4724 1.97192C35.3435 2.80403 36.0326 3.46712 37.4975 3.46712C38.9623 3.46712 39.6514 2.80837 40.5225 1.97192C41.3936 1.13981 42.3818 0.195025 44.176 0.0260024C44.6484 -0.0216706 45.0731 0.329377 45.1208 0.806106C45.1641 1.28284 44.8174 1.70756 44.3407 1.7509C43.1489 1.86358 42.4858 2.49633 41.723 3.22442C40.7566 4.14754 39.6601 5.19635 37.4975 5.19635Z" fill="#79171D"/>
</svg>
