<svg width="136" height="178" viewBox="0 0 136 178" fill="none" xmlns="http://www.w3.org/2000/svg">
<path d="M0 0H136V163L68.5 177.5L0 163V0Z" fill="#FFC547"/>
<g clip-path="url(#clip0_317_2722)">
<path d="M67.9983 88.4747C60.479 88.4747 47.8977 88.4747 46.8186 75.1046C46.7622 74.3939 47.0049 73.6831 47.4946 73.1544C47.9844 72.6256 48.6735 72.3223 49.3929 72.3223H86.6125C87.3276 72.3223 88.0123 72.6213 88.502 73.1457C88.9874 73.6701 89.2388 74.3765 89.1868 75.0916C88.2203 88.4747 77.0085 88.4747 67.9983 88.4747V88.4747ZM49.3929 74.0558C49.1545 74.0558 48.9335 74.1512 48.7688 74.3289C48.6085 74.5022 48.5304 74.7276 48.5478 74.9616C49.4232 85.831 58.6371 86.7412 67.9983 86.7412C77.3596 86.7412 86.6081 86.7412 87.4576 74.9659C87.4749 74.7276 87.3926 74.5022 87.2322 74.3289C87.0719 74.1555 86.8508 74.0602 86.6125 74.0602H49.3929V74.0558Z" fill="#79171D"/>
<path d="M87.2502 57.6739H48.7521C48.2017 57.6739 47.686 57.4009 47.3783 56.9415C47.0706 56.4821 47.0142 55.9057 47.2266 55.3986C50.724 46.9692 58.8761 41.5215 68.0033 41.5215C77.1305 41.5215 85.2826 46.9692 88.7757 55.3943C88.9881 55.9014 88.9274 56.4778 88.624 56.9372C88.3163 57.3966 87.8049 57.6696 87.2502 57.6696V57.6739ZM48.8778 55.9404H87.1245C83.8697 48.2304 76.3807 43.255 68.0033 43.255C59.6259 43.255 52.1326 48.2304 48.8778 55.9404V55.9404Z" fill="#79171D"/>
<path d="M62.9626 48.7155C62.6202 49.0796 62.0438 49.0969 61.6797 48.7502C61.3157 48.4078 61.2984 47.8314 61.6451 47.4674C61.9874 47.1033 63.513 46.0848 63.877 46.4272C64.2411 46.7696 63.3049 48.3515 62.9626 48.7112V48.7155Z" fill="#79171D"/>
<path d="M53.974 54.0939C53.5623 54.3799 52.9989 54.2802 52.7129 53.8685C52.4268 53.4568 52.5265 52.8934 52.9382 52.6073C53.3499 52.3213 55.0488 51.6322 55.3349 52.0439C55.6209 52.4556 54.3858 53.8078 53.974 54.0939V54.0939Z" fill="#79171D"/>
<path d="M67.0584 53.0406C66.9933 53.539 66.5383 53.8857 66.0399 53.8207C65.5415 53.7557 65.1948 53.3006 65.2598 52.8022C65.3248 52.3038 65.9619 50.5833 66.4559 50.6483C66.95 50.7133 67.1234 52.5379 67.0584 53.0363V53.0406Z" fill="#79171D"/>
<path d="M74.4126 47.0037C74.7549 47.3677 74.7376 47.9398 74.3736 48.2865C74.0095 48.6289 73.4374 48.6116 73.0907 48.2475C72.7483 47.8835 71.8166 46.3016 72.1806 45.9592C72.5447 45.6168 74.0659 46.6396 74.4082 47.0037H74.4126Z" fill="#79171D"/>
<path d="M77.0566 53.227C77.4293 53.5607 77.4553 54.1372 77.1216 54.5055C76.7879 54.8782 76.2115 54.9043 75.8431 54.5705C75.4704 54.2368 74.4172 52.733 74.7509 52.3646C75.0847 51.9919 76.6839 52.8933 77.0566 53.227Z" fill="#79171D"/>
<path d="M81.7371 49.7557C82.0318 50.1588 81.9451 50.7265 81.542 51.0212C81.139 51.3159 80.5713 51.2292 80.2765 50.8262C79.9818 50.4231 79.2494 48.7416 79.6525 48.4425C80.0555 48.1478 81.4424 49.3483 81.7371 49.7514V49.7557Z" fill="#79171D"/>
<path d="M82.4955 71.7632C80.3372 71.7632 79.2408 70.7144 78.27 69.7913C77.3988 68.9592 76.7098 68.2961 75.2449 68.2961C73.78 68.2961 73.0909 68.9549 72.2198 69.7913C71.2534 70.7144 70.1569 71.7632 67.9943 71.7632C65.8317 71.7632 64.7395 70.7144 63.7687 69.7913C62.8976 68.9592 62.2085 68.2961 60.7436 68.2961C59.2788 68.2961 58.5897 68.9549 57.7186 69.7913C56.7521 70.7144 55.6556 71.7632 53.4974 71.7632C51.3391 71.7632 50.2426 70.7144 49.2761 69.7913C48.5134 69.0589 47.8546 68.4305 46.6585 68.3178C46.1817 68.2745 45.8307 67.8497 45.8784 67.373C45.9217 66.8963 46.3421 66.5452 46.8231 66.5929C48.6174 66.7619 49.6055 67.7067 50.4766 68.5388C51.3477 69.3709 52.0368 70.034 53.5017 70.034C54.9666 70.034 55.6556 69.3753 56.5268 68.5388C57.4932 67.6157 58.5897 66.5669 60.748 66.5669C62.9063 66.5669 64.0027 67.6157 64.9692 68.5388C65.8403 69.3709 66.5294 70.034 67.9943 70.034C69.4591 70.034 70.1482 69.3753 71.0193 68.5388C71.9858 67.6157 73.0823 66.5669 75.2449 66.5669C77.4075 66.5669 78.4997 67.6157 79.4704 68.5388C80.3416 69.3709 81.0307 70.034 82.4955 70.034C83.9604 70.034 84.6495 69.3753 85.5206 68.5388C86.3917 67.7067 87.3798 66.7619 89.1741 66.5929C89.6465 66.5452 90.0712 66.8963 90.1189 67.373C90.1622 67.8497 89.8155 68.2745 89.3387 68.3178C88.1469 68.4305 87.4838 69.0632 86.7211 69.7913C85.7546 70.7144 84.6581 71.7632 82.4955 71.7632V71.7632Z" fill="#79171D"/>
<path d="M68.4061 44.2346C68.3801 44.2346 68.3541 44.2346 68.3281 44.2346C67.8514 44.1913 67.5003 43.7709 67.5437 43.2942L68.5014 32.7888C68.5448 32.3121 68.9695 31.9697 69.4419 32.0044C69.9186 32.0477 70.2697 32.4681 70.2263 32.9448L69.2686 43.4459C69.2295 43.8966 68.8482 44.2346 68.4061 44.2346V44.2346Z" fill="#79171D"/>
<path d="M78.5253 40.9621C78.3779 40.9621 78.2263 40.9231 78.0919 40.8451C76.8091 40.1084 75.3702 40.3511 73.8447 40.6068C72.1675 40.8885 70.2692 41.2092 68.449 40.1604C68.1586 39.9957 67.9939 39.6793 68.0156 39.3456L68.4403 33.3735C68.462 33.0744 68.6353 32.8101 68.8954 32.6714C69.1597 32.5284 69.4761 32.537 69.7361 32.6844C71.019 33.4212 72.4578 33.1785 73.9834 32.9228C75.6606 32.6411 77.5588 32.3247 79.3791 33.3691C79.6694 33.5338 79.8341 33.8502 79.8125 34.1839L79.3877 40.156C79.3661 40.4551 79.1927 40.7194 78.9327 40.8581C78.807 40.9275 78.664 40.9621 78.5253 40.9621ZM69.7881 38.8862C70.9496 39.3369 72.2195 39.1202 73.5586 38.8992C74.8631 38.6782 76.3063 38.4355 77.7452 38.8385L78.0442 34.6476C76.8827 34.1969 75.6129 34.4136 74.2737 34.6346C72.9692 34.8557 71.526 35.0984 70.0872 34.6953L69.7881 38.8862V38.8862Z" fill="#79171D"/>
<path d="M88.0346 60.508H47.6773C47.2006 60.508 46.8105 60.1179 46.8105 59.6412C46.8105 59.1645 47.2006 58.7744 47.6773 58.7744H88.0346C88.5114 58.7744 88.9014 59.1645 88.9014 59.6412C88.9014 60.1179 88.5114 60.508 88.0346 60.508Z" fill="#79171D"/>
<path d="M88.0346 65.8175H47.6773C47.2006 65.8175 46.8105 65.4275 46.8105 64.9508C46.8105 64.474 47.2006 64.084 47.6773 64.084H88.0346C88.5114 64.084 88.9014 64.474 88.9014 64.9508C88.9014 65.4275 88.5114 65.8175 88.0346 65.8175Z" fill="#79171D"/>
<path d="M51.1314 63.0912H48.7304C48.3837 63.0912 48.0977 62.8051 48.0977 62.4584C48.0977 62.1117 48.3837 61.8257 48.7304 61.8257H51.1314C51.4781 61.8257 51.7641 62.1117 51.7641 62.4584C51.7641 62.8051 51.4781 63.0912 51.1314 63.0912V63.0912Z" fill="#79171D"/>
<path d="M58.1734 63.0912H55.7724C55.4257 63.0912 55.1396 62.8051 55.1396 62.4584C55.1396 62.1117 55.4257 61.8257 55.7724 61.8257H58.1734C58.5201 61.8257 58.8061 62.1117 58.8061 62.4584C58.8061 62.8051 58.5201 63.0912 58.1734 63.0912Z" fill="#79171D"/>
<path d="M65.2164 63.0912H62.8154C62.4687 63.0912 62.1826 62.8051 62.1826 62.4584C62.1826 62.1117 62.4687 61.8257 62.8154 61.8257H65.2164C65.5631 61.8257 65.8491 62.1117 65.8491 62.4584C65.8491 62.8051 65.5631 63.0912 65.2164 63.0912Z" fill="#79171D"/>
<path d="M72.2583 63.0912H69.8574C69.5106 63.0912 69.2246 62.8051 69.2246 62.4584C69.2246 62.1117 69.5106 61.8257 69.8574 61.8257H72.2583C72.6051 61.8257 72.8911 62.1117 72.8911 62.4584C72.8911 62.8051 72.6051 63.0912 72.2583 63.0912Z" fill="#79171D"/>
<path d="M79.3013 63.0912H76.9003C76.5536 63.0912 76.2676 62.8051 76.2676 62.4584C76.2676 62.1117 76.5536 61.8257 76.9003 61.8257H79.3013C79.648 61.8257 79.9341 62.1117 79.9341 62.4584C79.9341 62.8051 79.648 63.0912 79.3013 63.0912Z" fill="#79171D"/>
<path d="M86.3443 63.0912H83.9433C83.5966 63.0912 83.3105 62.8051 83.3105 62.4584C83.3105 62.1117 83.5966 61.8257 83.9433 61.8257H86.3443C86.691 61.8257 86.977 62.1117 86.977 62.4584C86.977 62.8051 86.691 63.0912 86.3443 63.0912Z" fill="#79171D"/>
</g>
<g clip-path="url(#clip1_317_2722)">
<path d="M36.8067 122.62V124.75C36.8067 128.522 34.379 130.986 30.6107 130.986H24V104.85H30.2725C34.0448 104.85 36.4685 107.314 36.4685 111.086V112.467C36.4685 114.818 35.5345 116.497 33.8194 117.471C35.7237 118.369 36.8067 120.12 36.8067 122.624V122.62ZM27.9575 108.582V115.675H29.7129C31.6172 115.675 32.5109 114.778 32.5109 112.877V111.009C32.5109 109.479 31.6131 108.582 30.0833 108.582H27.9535H27.9575ZM32.8491 122.21C32.8491 120.305 31.9513 119.412 30.047 119.412H27.9575V127.25H30.4214C31.9513 127.25 32.8491 126.352 32.8491 124.823V122.21V122.21Z" fill="#79171D"/>
<path d="M39.3068 118.526V104.85H43.2643V118.526C43.2643 120.056 44.1983 120.913 45.4665 120.913C46.7347 120.913 47.6687 120.056 47.6687 118.526V104.85H51.5498V118.526C51.5498 122.186 49.0859 124.649 45.4625 124.649C41.8391 124.649 39.3027 122.186 39.3027 118.526H39.3068Z" fill="#79171D"/>
<path d="M63.6881 130.982L60.8135 120.193H58.7603V130.982H54.8027V104.85H60.9987C64.7711 104.85 67.1947 107.314 67.1947 111.086V113.96C67.1947 116.388 66.1882 118.252 64.4691 119.299L67.7906 130.982H63.6841H63.6881ZM58.7603 116.461H60.8135C62.3434 116.461 63.2412 115.563 63.2412 114.033V111.009C63.2412 109.479 62.3434 108.582 60.8135 108.582H58.7603V116.461V116.461Z" fill="#79171D"/>
<path d="M78.5078 112.986V110.784C78.5078 109.141 77.5737 108.207 76.1203 108.207C74.667 108.207 73.7329 109.141 73.7329 110.784V125.044C73.7329 126.686 74.667 127.62 76.1203 127.62C77.5737 127.62 78.5078 126.686 78.5078 125.044V120.414H76.1203V116.682H82.4693V125.044C82.4693 128.816 79.9289 131.353 76.1203 131.353C72.3118 131.353 69.7754 128.812 69.7754 125.044V110.784C69.7754 107.011 72.3158 104.475 76.1203 104.475C79.9249 104.475 82.4693 107.015 82.4693 110.784V112.986H78.5118H78.5078Z" fill="#79171D"/>
<path d="M85.3799 104.765H96.6164V108.497H89.3374V113.435H93.3352V117.167H89.3374V120.901H96.6164V124.633H85.3799V104.765Z" fill="#79171D"/>
<path d="M107.893 130.982L105.019 120.193H102.965V130.982H99.0078V104.85H105.204C108.976 104.85 111.4 107.314 111.4 111.086V113.96C111.4 116.388 110.393 118.252 108.674 119.299L111.996 130.982H107.889H107.893ZM102.965 116.461H105.019C106.548 116.461 107.446 115.563 107.446 114.033V111.009C107.446 109.479 106.548 108.582 105.019 108.582H102.965V116.461V116.461Z" fill="#79171D"/>
<path d="M51.0461 127.049H39.8096V131.075H51.0461V127.049Z" fill="#79171D"/>
<path d="M96.6164 127.049H85.3799V131.075H96.6164V127.049Z" fill="#79171D"/>
</g>
<defs>
<clipPath id="clip0_317_2722">
<rect width="44.2448" height="56.4751" fill="white" transform="translate(45.8779 32)"/>
</clipPath>
<clipPath id="clip1_317_2722">
<rect width="88" height="26.8815" fill="white" transform="translate(24 104.475)"/>
</clipPath>
</defs>
</svg>
