<svg width="225" height="225" viewBox="0 0 225 225" fill="none" xmlns="http://www.w3.org/2000/svg">
<path d="M192.07 191.93C235.976 148.023 235.976 76.8367 192.07 32.93C148.163 -10.9767 76.9763 -10.9767 33.0696 32.93C-10.837 76.8366 -10.837 148.023 33.0696 191.93C76.9763 235.837 148.163 235.837 192.07 191.93Z" fill="white"/>
<path d="M169.811 121.594C174.87 89.9749 153.339 60.2418 121.72 55.183C90.1012 50.1241 60.3681 71.6552 55.3093 103.274C50.2504 134.893 71.7815 164.626 103.4 169.685C135.019 174.744 164.752 153.213 169.811 121.594Z" fill="#79171D"/>
<path d="M92.5143 112.249C97.0273 112.249 100.686 105.483 100.686 97.1377C100.686 88.7922 97.0273 82.0269 92.5143 82.0269C88.0013 82.0269 84.3428 88.7922 84.3428 97.1377C84.3428 105.483 88.0013 112.249 92.5143 112.249Z" fill="white"/>
<path d="M140.791 97.1377C140.791 105.478 137.134 112.249 132.62 112.249C128.106 112.249 124.448 105.491 124.448 97.1377C124.448 88.7846 128.106 82.0269 132.62 82.0269C137.134 82.0269 140.791 88.7846 140.791 97.1377Z" fill="white"/>
<path fill-rule="evenodd" clip-rule="evenodd" d="M85.3965 136.754C90.7771 142.676 99.3987 148.579 112.566 148.579C125.734 148.579 134.355 142.676 139.736 136.754C142.439 133.779 144.321 130.799 145.524 128.564C146.125 127.449 146.554 126.526 146.829 125.891C146.966 125.574 147.065 125.329 147.128 125.169C147.159 125.089 147.181 125.03 147.195 124.994L147.208 124.957L147.21 124.953C147.209 124.954 147.209 124.955 149.312 125.699C151.415 126.443 151.415 126.444 151.415 126.445L151.413 126.448L151.411 126.456L151.403 126.478L151.377 126.548C151.355 126.607 151.324 126.689 151.283 126.793C151.202 127.001 151.083 127.295 150.923 127.665C150.603 128.403 150.12 129.442 149.453 130.681C148.12 133.155 146.039 136.452 143.038 139.755C137.011 146.388 127.26 153.041 112.566 153.041C97.8726 153.041 88.1211 146.388 82.0941 139.755C79.0935 136.452 77.0127 133.155 75.6797 130.681C75.0121 129.442 74.5288 128.403 74.2091 127.665C74.0492 127.295 73.9299 127.001 73.8488 126.793C73.8083 126.689 73.7772 126.607 73.7553 126.548L73.7294 126.478L73.7215 126.456L73.7188 126.448L73.7178 126.445C73.7174 126.444 73.717 126.443 75.8202 125.699C77.9233 124.955 77.923 124.954 77.9227 124.953L77.9223 124.952C77.9222 124.952 77.9221 124.951 77.9221 124.951L77.924 124.957L77.9377 124.994C77.9511 125.03 77.9733 125.089 78.0047 125.169C78.0673 125.329 78.1661 125.574 78.3036 125.891C78.5786 126.526 79.0071 127.449 79.6078 128.564C80.8114 130.799 82.6932 133.779 85.3965 136.754ZM77.9221 124.951C77.9221 124.951 77.9221 124.951 77.9221 124.951L77.9221 124.951Z" fill="white"/>
<path fill-rule="evenodd" clip-rule="evenodd" d="M67.0284 127.771C67.0272 127.77 67.026 127.77 67.8557 125.699C68.6853 123.628 68.6842 123.628 68.6831 123.627L68.6811 123.626L68.6777 123.625L68.673 123.623C68.6709 123.622 68.6707 123.622 68.6724 123.623C68.6759 123.624 68.6868 123.628 68.705 123.635C68.7414 123.648 68.8064 123.67 68.8973 123.699C69.0795 123.755 69.3623 123.835 69.7243 123.909C70.4539 124.058 71.4704 124.178 72.6169 124.073C74.8148 123.87 77.6781 122.831 80.0455 119.011L83.8382 121.362C80.6671 126.478 76.4874 128.196 73.0268 128.516C71.3441 128.671 69.8774 128.494 68.8312 128.28C68.3054 128.173 67.8771 128.054 67.5703 127.959C67.4166 127.911 67.2925 127.868 67.201 127.836C67.1553 127.819 67.1176 127.805 67.0883 127.794L67.0507 127.78L67.0368 127.774L67.031 127.772L67.0284 127.771Z" fill="white"/>
<path fill-rule="evenodd" clip-rule="evenodd" d="M155.527 123.627C155.526 123.628 155.525 123.628 156.355 125.699C157.184 127.77 157.183 127.77 157.182 127.771L157.179 127.772L157.173 127.774L157.16 127.78L157.122 127.794C157.093 127.805 157.055 127.819 157.009 127.836C156.918 127.868 156.794 127.911 156.64 127.959C156.333 128.054 155.905 128.173 155.379 128.28C154.333 128.494 152.866 128.671 151.183 128.516C147.723 128.196 143.543 126.478 140.372 121.362L144.165 119.011C146.532 122.831 149.395 123.87 151.593 124.073C152.74 124.178 153.756 124.058 154.486 123.909C154.848 123.835 155.131 123.755 155.313 123.699C155.404 123.67 155.469 123.648 155.505 123.635C155.523 123.628 155.534 123.624 155.538 123.623C155.54 123.622 155.539 123.622 155.537 123.623L155.533 123.625L155.529 123.626L155.527 123.627Z" fill="white"/>
<path fill-rule="evenodd" clip-rule="evenodd" d="M44.5539 44.4127C6.98905 81.9775 6.98905 142.882 44.5539 180.447C82.1187 218.012 143.023 218.012 180.588 180.447C218.153 142.882 218.153 81.9775 180.588 44.4127C143.023 6.84793 82.1187 6.84794 44.5539 44.4127ZM43.013 181.988C4.59722 143.572 4.59722 81.2877 43.013 42.8719C81.4288 4.45611 143.713 4.45611 182.129 42.8719C220.545 81.2877 220.545 143.572 182.129 181.988C143.713 220.404 81.4288 220.404 43.013 181.988Z" fill="#79171D"/>
<path d="M44.5473 110.835L25.208 108.371L27.0888 93.6099L30.4093 94.0249L29.0473 104.765L33.5482 105.335L34.7934 95.5295L38.1139 95.9446L36.8687 105.75L41.7586 106.373L43.1724 95.2961L46.4929 95.7111L44.5733 110.822L44.5473 110.835Z" fill="#79171D"/>
<path d="M46.233 95.6074L31.3945 80.5225L32.7824 77.215L53.9376 77.1631L52.1736 81.3915L48.0359 81.2489L44.9489 88.6421L47.9581 91.4827L46.233 95.5944V95.6074ZM42.3677 86.1518L44.456 81.1451L36.8941 80.8986L42.3677 86.1647V86.1518Z" fill="#79171D"/>
<path d="M56.3116 74.7373L43.1723 65.3336L39.4367 70.5608L36.7129 68.6152L46.5577 54.8662L49.2815 56.8118L45.5589 62.0131L58.6982 71.4168L56.3246 74.7373H56.3116Z" fill="#79171D"/>
<path d="M68.0638 60.4824L64.6006 39.6125L67.6357 37.6929L84.9776 49.8075L81.0993 52.259L77.7918 49.7686L71.0081 54.0489L71.8382 58.1087L68.0638 60.4824ZM70.3336 50.5209L74.9253 47.6284L68.8809 43.0757L70.3336 50.5209Z" fill="#79171D"/>
<path d="M93.7844 46.9151L90.6455 27.6666L100.036 26.1361C101.165 25.9545 102.215 25.9675 103.188 26.188C104.161 26.4085 104.978 26.8365 105.64 27.4721C106.301 28.1076 106.716 28.9507 106.898 30.0143C107.079 31.1557 106.95 32.1415 106.509 32.9846C106.068 33.8277 105.432 34.4373 104.615 34.8135C105.354 34.7875 106.042 34.9432 106.703 35.2804C107.365 35.6177 107.922 36.0976 108.376 36.7461C108.843 37.3817 109.142 38.1469 109.284 39.029C109.583 40.8449 109.181 42.2716 108.104 43.2963C107.015 44.334 105.471 45.0084 103.461 45.3327L93.7974 46.9151H93.7844ZM95.9246 34.8264L100.516 34.0741C102.176 33.8018 102.877 32.8808 102.617 31.2984C102.501 30.585 102.189 30.0792 101.697 29.7938C101.191 29.5085 100.555 29.4306 99.7769 29.5603L95.1853 30.3126L95.9246 34.8264ZM97.2476 42.9591L102.358 42.1289C103.318 41.9733 104.018 41.662 104.446 41.1951C104.874 40.7281 105.017 40.0796 104.887 39.2365C104.758 38.4323 104.369 37.8746 103.733 37.5762C103.097 37.2779 102.371 37.1871 101.567 37.3168L96.4564 38.1469L97.2476 42.9591Z" fill="#79171D"/>
<path d="M120.4 45.5663C117.637 45.242 115.601 44.3729 114.317 42.9332C113.033 41.5064 112.527 39.5089 112.825 36.9407L114.226 24.8521L118.286 25.319L116.911 37.2131C116.73 38.7826 117.002 39.937 117.715 40.7022C118.429 41.4675 119.466 41.9085 120.802 42.0642C122.151 42.2198 123.254 42.0123 124.11 41.4416C124.966 40.8709 125.498 39.7943 125.679 38.2248L127.054 26.3307L131.114 26.7977L129.713 38.8863C129.415 41.4545 128.481 43.2834 126.912 44.3859C125.342 45.4884 123.163 45.8776 120.4 45.5533V45.5663Z" fill="#79171D"/>
<path d="M131.425 46.9408L138.961 28.9634L148.287 32.8676C149.558 33.3994 150.583 34.0349 151.361 34.7613C152.153 35.4876 152.632 36.3567 152.814 37.3295C152.996 38.3153 152.814 39.4567 152.269 40.7537C151.595 42.3621 150.7 43.4127 149.584 43.9056C148.469 44.3985 147.185 44.4634 145.719 44.1132L146.653 53.3223L142.308 51.5065L141.815 42.6604L138.222 41.1558L135.135 48.4972L131.399 46.9278L131.425 46.9408ZM139.545 38.0558L144.604 40.183C145.473 40.5462 146.225 40.6629 146.86 40.5203C147.509 40.3906 147.989 39.9236 148.326 39.1065C148.65 38.3153 148.65 37.6537 148.287 37.096C147.937 36.5383 147.327 36.0843 146.458 35.7211L141.4 33.5939L139.532 38.0429L139.545 38.0558Z" fill="#79171D"/>
<path d="M155.305 60.5605C153.761 59.3153 152.659 57.9015 151.997 56.2802C151.336 54.6718 151.141 52.9986 151.426 51.2605C151.712 49.5224 152.516 47.8492 153.813 46.2279C155.136 44.5936 156.602 43.4521 158.236 42.8036C159.87 42.1551 161.544 41.9735 163.269 42.2718C164.994 42.5701 166.615 43.3484 168.159 44.5806C169.456 45.6182 170.48 46.7856 171.233 48.0697C171.985 49.3538 172.478 50.573 172.685 51.7274L168.911 52.3371C168.833 51.5069 168.522 50.6379 168.003 49.73C167.484 48.822 166.784 48.0178 165.928 47.3304C164.968 46.5651 163.969 46.1241 162.931 46.0074C161.881 45.8906 160.869 46.0852 159.87 46.5651C158.872 47.058 157.951 47.8233 157.108 48.8739C156.264 49.9115 155.72 50.9751 155.447 52.0517C155.188 53.1283 155.214 54.1659 155.551 55.1517C155.888 56.1504 156.524 57.0325 157.484 57.7977C158.223 58.3944 158.885 58.8224 159.455 59.0818C160.026 59.3412 160.545 59.4969 161.025 59.5747L163.385 56.6433L160.804 54.568L162.905 51.9609L168.69 56.6174L162.737 64.0107C161.518 63.8421 160.247 63.44 158.949 62.8174C157.652 62.1948 156.433 61.4295 155.292 60.5216L155.305 60.5605Z" fill="#79171D"/>
<path d="M163.346 67.1366L179.157 55.7354L187.86 67.8111L185.149 69.7696L178.82 60.9885L175.136 63.6475L180.921 71.6634L178.21 73.6219L172.425 65.6061L168.43 68.4855L174.967 77.5391L172.257 79.4977L163.346 67.1496V67.1366Z" fill="#79171D"/>
<path d="M173.126 81.1836L191.376 74.3091L194.943 83.7647C195.423 85.0488 195.669 86.2291 195.682 87.3057C195.682 88.3823 195.397 89.3291 194.813 90.1333C194.229 90.9375 193.269 91.599 191.946 92.0919C190.312 92.7015 188.937 92.7794 187.809 92.2994C186.68 91.8195 185.746 90.9375 185.007 89.6404L178.963 96.6576L177.303 92.2476L183.399 85.8141L182.024 82.1693L174.566 84.984L173.139 81.1836H173.126ZM185.163 80.989L187.095 86.1254C187.42 87.0074 187.861 87.63 188.392 88.0061C188.937 88.3823 189.612 88.4082 190.429 88.1099C191.233 87.8116 191.7 87.3446 191.869 86.7091C192.024 86.0735 191.933 85.3212 191.609 84.4392L189.677 79.3028L185.163 81.002V80.989Z" fill="#79171D"/>
<path d="M180.572 105.05L199.742 113.987L199.613 117.567L179.819 125.025L179.988 120.446L183.918 119.123L184.216 111.107L180.403 109.499L180.572 105.037V105.05ZM187.511 112.56L187.303 117.982L194.476 115.569L187.511 112.56Z" fill="#79171D"/>
<path d="M179.482 126.023L197.913 132.379L196.59 136.218L180.947 141.16L193.399 145.454L192.063 149.319L173.632 142.963L174.89 139.305L191.026 134.299L178.146 129.863L179.469 126.023H179.482Z" fill="#79171D"/>
<path d="M172.256 145.428L188.016 156.907L183.774 162.73C182.529 164.443 181.154 165.753 179.649 166.635C178.145 167.53 176.562 167.906 174.876 167.789C173.19 167.672 171.439 166.946 169.61 165.61C167.807 164.3 166.588 162.86 165.952 161.291C165.317 159.721 165.187 158.087 165.563 156.375C165.939 154.676 166.757 152.963 168.002 151.238L172.243 145.415L172.256 145.428ZM172.567 150.668L170.894 152.963C169.701 154.611 169.156 156.232 169.273 157.84C169.39 159.449 170.337 160.889 172.113 162.186C173.903 163.483 175.577 163.95 177.133 163.561C178.69 163.171 180.065 162.16 181.271 160.512L182.944 158.217L172.58 150.668H172.567Z" fill="#79171D"/>
<path d="M154.123 166.427L164.162 183.146L156.004 188.049C155.018 188.633 154.045 189.009 153.06 189.164C152.074 189.32 151.153 189.229 150.31 188.879C149.454 188.529 148.753 187.893 148.209 186.972C147.612 185.987 147.365 185.014 147.469 184.067C147.573 183.12 147.923 182.316 148.559 181.654C147.884 181.953 147.184 182.057 146.457 181.992C145.731 181.927 145.031 181.68 144.356 181.252C143.695 180.824 143.124 180.241 142.67 179.475C141.723 177.906 141.568 176.427 142.19 175.065C142.813 173.703 144.006 172.497 145.757 171.446L154.162 166.401L154.123 166.427ZM152.372 171.382L147.936 174.054C147.093 174.559 146.561 175.104 146.341 175.701C146.12 176.298 146.224 176.959 146.665 177.685C147.08 178.386 147.651 178.762 148.351 178.801C149.052 178.84 149.752 178.658 150.452 178.243L154.888 175.584L152.385 171.408L152.372 171.382ZM156.614 178.451L152.632 180.837C151.192 181.706 150.88 182.822 151.698 184.197C152.074 184.819 152.541 185.169 153.111 185.247C153.682 185.325 154.305 185.169 154.979 184.754L158.961 182.355L156.614 178.438V178.451Z" fill="#79171D"/>
<path d="M137.858 175.624L143.176 194.379L128.856 198.439L127.948 195.222L138.364 192.278L137.131 187.907L127.611 190.605L126.703 187.388L136.223 184.69L134.875 179.943L124.122 182.991L123.214 179.774L137.858 175.624Z" fill="#79171D"/>
<path d="M113.162 180.656L110.866 200.021L106.845 199.541L107.74 192.044L98.4792 190.942L97.5842 198.439L93.5244 197.959L95.8202 178.594L99.8801 179.074L98.8683 187.621L108.129 188.724L109.141 180.176L113.162 180.656Z" fill="#79171D"/>
<path d="M94.7826 178.516L79.4772 193.134L76.1826 191.707L76.4291 170.552L80.6316 172.381L80.437 176.518L87.7914 179.709L90.6839 176.739L94.7696 178.516H94.7826ZM85.2621 182.251L80.2814 180.085L79.9182 187.647L85.2621 182.251Z" fill="#79171D"/>
<path d="M75.7023 169.721L63.3412 184.806L55.5199 178.399C54.4563 177.53 53.6521 176.635 53.1073 175.701C52.5625 174.78 52.342 173.807 52.4458 172.821C52.5496 171.823 53.0425 170.785 53.9374 169.696C54.8324 168.606 55.7663 167.906 56.7261 167.607C57.686 167.309 58.6847 167.322 59.6964 167.672C60.7211 168.022 61.7588 168.619 62.8224 169.501L67.5048 173.34L72.5504 167.179L75.6893 169.747L75.7023 169.721ZM65.3776 175.921L61.1362 172.445C60.4098 171.849 59.7224 171.524 59.0738 171.472C58.4253 171.421 57.8157 171.732 57.2579 172.406C56.7132 173.068 56.5316 173.716 56.7132 174.339C56.8947 174.975 57.3487 175.584 58.0751 176.168L62.3165 179.644L65.3646 175.921H65.3776Z" fill="#79171D"/>
<path d="M61.6688 157.698L45.7278 168.93L39.9039 160.668C39.1127 159.54 38.5809 158.463 38.3085 157.425C38.0362 156.388 38.0751 155.402 38.4382 154.468C38.8014 153.534 39.5667 152.665 40.7211 151.848C41.8755 151.031 42.9521 150.616 43.9638 150.577C44.9755 150.538 45.9223 150.823 46.8173 151.433C47.7123 152.042 48.5554 152.899 49.3466 154.027L52.8357 158.982L59.347 154.39L61.6817 157.711L61.6688 157.698ZM50.06 160.914L46.8951 156.427C46.3504 155.661 45.7797 155.168 45.17 154.935C44.5604 154.701 43.8859 154.844 43.1726 155.35C42.4721 155.843 42.1349 156.414 42.1349 157.075C42.1349 157.737 42.4202 158.437 42.952 159.202L46.1169 163.69L50.06 160.914Z" fill="#79171D"/>
<path d="M49.4373 136.945L41.6678 139.695L33.5222 150.395L31.9528 145.959L37.2837 139.072L28.8139 137.1L27.2314 132.625L40.3059 135.842L48.0754 133.092L49.4373 136.945Z" fill="#79171D"/>
</svg>
