<svg width="240" height="64" viewBox="0 0 240 64" fill="none" xmlns="http://www.w3.org/2000/svg">
<g clip-path="url(#clip0_293_1847)">
<path d="M239.109 49.0075C230.303 47.5991 220.946 49.5958 212.318 50.5406C208.867 50.915 205.327 51.1467 201.787 51.0754C202.551 51.0754 204.153 49.9166 204.562 49.6849C206.02 48.8827 207.55 48.0091 207.799 46.9217C208.742 42.5896 170.975 48.4192 167.879 48.7222C161.618 49.3462 165.727 47.6169 167.684 46.3155C170.085 44.7111 172.274 43.0888 174.017 41.2882C175.084 40.1829 175.565 38.9172 174.444 37.9545C175.013 37.6336 175.458 37.3841 175.707 37.2593C182.538 33.5155 188.693 29.4687 194.795 25.4398C200.861 21.4286 207.977 17.4353 210.717 12.5328C212.763 8.8782 210.29 2.05035 199.705 2.70996C194.19 3.04868 189.654 4.92054 186.505 7.07765C178.945 12.2654 175.067 18.6297 168.929 24.2453C160.159 32.2676 149.147 39.8086 136 46.262C132.211 48.1339 128.137 49.8988 123.566 51.3072C116.681 53.4286 123.352 50.4158 125.682 49.2036C129.24 47.3317 131.927 45.1389 131.998 42.554C132.033 41.4665 130.254 40.896 128.315 41.2882C126.803 41.5913 124.33 42.554 122.178 43.7306C120.452 42.9818 117.659 42.6966 113.977 43.6058C110.508 44.4615 107.946 45.6203 105.367 46.886C105.954 46.1373 106.452 45.3885 106.914 44.6041C108 42.7322 111.664 37.9545 108.925 36.0827C106.487 34.4247 103.428 37.1523 102.111 38.0437C91.5264 45.2637 77.9707 51.6281 62.6182 56.3701C49.525 60.4169 31.3262 63.8219 16.0094 60.7022C-2.01155 57.0297 2.5426 45.4063 7.22128 38.3646C18.7667 21.0008 46.2695 4.02918 85.6558 1.94339C87.2924 1.85425 88.9469 1.80077 90.6013 1.83642C92.487 1.87208 92.8962 0.0536914 91.046 0.0180368C70.0899 -0.374164 49.2938 5.68712 34.9909 12.6041C19.1225 20.2698 8.12855 31.0197 2.3825 41.4487C-0.677322 47.0108 -2.0827 54.4983 6.24285 59.2225C26.2562 70.5963 63.8101 58.9194 80.6747 51.8063C90.1388 47.813 100.261 43.1066 107.252 38.0258C109.707 36.2431 106.416 43.7841 106.327 43.9623C104.068 48.4548 98.7667 48.8292 101.222 50.1662C101.578 50.3623 102.182 50.3802 102.627 50.2554C106.452 49.1679 109.049 47.0821 112.678 45.8164C114.208 45.2815 117.25 45.2281 119.225 45.6737C118.14 46.6186 117.606 47.5278 118.229 48.2052C118.442 48.4548 119.011 48.5618 119.527 48.5261C123.423 48.2052 124.722 46.5473 123.939 45.1389C125.327 44.0158 126.946 42.7501 128.547 42.1439C132.905 40.486 129.667 45.0498 125.38 47.0464C123.512 47.92 121.893 48.9183 120.097 49.8275C115.364 52.2164 117.055 54.9618 123.832 53.1969C135.609 50.1127 145.109 42.8214 153.043 37.7763C159.216 33.8542 164.66 30.9127 169.658 26.6164C176.241 20.9651 180.279 14.6008 187.306 9.10996C191.486 5.84756 201.858 2.12166 207.39 6.81024C213.385 11.9088 203.921 18.3267 198.335 22.1061C191.344 26.8303 181.862 31.4832 174.052 35.8866C173.394 36.2609 172.7 36.5997 172.024 36.974C166.634 35.94 153.31 39.149 154.911 42.2509C156.992 46.2977 166.367 42.1974 171.882 39.3629C171.758 40.9317 166.065 44.925 165.513 45.2994C163.966 46.3334 159.323 48.6687 161.653 50.1484C164.784 52.1272 177.006 48.2765 180.332 47.8665C185.829 47.1891 191.362 46.5829 196.948 46.1194C199.118 45.9412 201.306 45.8342 203.494 45.8698C206.821 45.9055 201.804 48.9361 200.666 49.5779C199.385 50.2732 196.877 52.3412 200.221 52.7868C212.692 54.4626 225.465 48.7579 237.971 50.7545C239.892 51.0576 240.817 49.3105 239.145 49.0431L239.109 49.0075ZM160.906 41.7874C157.188 42.8392 159.839 40.4682 161.635 39.9155C163.646 39.3094 166.101 38.8459 168.538 38.7211C167.453 39.2381 166.385 39.7729 165.264 40.2721C163.912 40.8782 162.471 41.3595 160.906 41.7874V41.7874Z" fill="#79171D"/>
</g>
<defs>
<clipPath id="clip0_293_1847">
<rect width="240" height="64" fill="white"/>
</clipPath>
</defs>
</svg>
