<svg width="151" height="108" viewBox="0 0 151 108" fill="none" xmlns="http://www.w3.org/2000/svg">
<path d="M33.6071 88.7898C27.6625 88.7685 22.5275 87.3942 18.2022 84.6669C13.877 81.9396 10.5424 78.0085 8.19869 72.8736C5.85494 67.7386 4.69371 61.581 4.71502 54.4006C4.73633 47.1989 5.9082 41.0838 8.23065 36.0554C10.5744 31.027 13.8983 27.2024 18.2022 24.5817C22.5275 21.9609 27.6625 20.6506 33.6071 20.6506C39.5517 20.6506 44.6866 21.9716 49.0119 24.6136C53.3372 27.2344 56.6717 31.0589 59.0154 36.0874C61.3592 41.1158 62.5204 47.2202 62.4991 54.4006C62.4991 61.6236 61.3272 67.8026 58.9835 72.9375C56.6397 78.0724 53.3052 82.0036 48.9799 84.7308C44.676 87.4368 39.5517 88.7898 33.6071 88.7898ZM33.6071 74.3438C36.6752 74.3438 39.1895 72.7457 41.1497 69.5497C43.1312 66.3324 44.1113 61.2827 44.09 54.4006C44.09 49.9048 43.6426 46.2294 42.7477 43.3743C41.8528 40.5192 40.617 38.4098 39.0403 37.0462C37.4636 35.6612 35.6525 34.9688 33.6071 34.9688C30.5389 34.9688 28.0353 36.5241 26.0964 39.6349C24.1575 42.7457 23.1667 47.6676 23.1241 54.4006C23.1028 58.9815 23.5396 62.7528 24.4345 65.7145C25.3294 68.6548 26.5652 70.8281 28.1419 72.2344C29.7399 73.6406 31.5616 74.3438 33.6071 74.3438ZM70.2015 76.7727V62.9659L96.5368 21.5455H109.065V39.9545H101.906L87.7157 62.4545V62.9659H126.579V76.7727H70.2015ZM102.034 87V72.554L102.417 66.5455V21.5455H119.037V87H102.034Z" fill="white"/>
<path d="M142.373 56.5977C140.215 56.5977 139.119 55.5489 138.148 54.6258C137.277 53.7937 136.588 53.1306 135.123 53.1306C133.658 53.1306 132.969 53.7893 132.098 54.6258C131.131 55.5489 130.035 56.5977 127.872 56.5977C125.71 56.5977 124.617 55.5489 123.647 54.6258C122.776 53.7937 122.086 53.1306 120.622 53.1306C119.157 53.1306 118.468 53.7893 117.597 54.6258C116.63 55.5489 115.534 56.5977 113.375 56.5977C111.217 56.5977 110.121 55.5489 109.154 54.6258C108.391 53.8934 107.733 53.2649 106.536 53.1523C106.06 53.1089 105.709 52.6842 105.756 52.2075C105.8 51.7307 106.22 51.3797 106.701 51.4274C108.495 51.5964 109.483 52.5412 110.355 53.3733C111.226 54.2054 111.915 54.8685 113.38 54.8685C114.844 54.8685 115.534 54.2097 116.405 53.3733C117.371 52.4502 118.468 51.4014 120.626 51.4014C122.784 51.4014 123.881 52.4502 124.847 53.3733C125.718 54.2054 126.407 54.8685 127.872 54.8685C129.337 54.8685 130.026 54.2097 130.897 53.3733C131.864 52.4502 132.96 51.4014 135.123 51.4014C137.285 51.4014 138.378 52.4502 139.348 53.3733C140.219 54.2054 140.909 54.8685 142.373 54.8685C143.838 54.8685 144.527 54.2097 145.399 53.3733C146.27 52.5412 147.258 51.5964 149.052 51.4274C149.524 51.3797 149.949 51.7307 149.997 52.2075C150.04 52.6842 149.693 53.1089 149.217 53.1523C148.025 53.2649 147.362 53.8977 146.599 54.6258C145.633 55.5489 144.536 56.5977 142.373 56.5977Z" fill="#79171D"/>
</svg>
