<svg width="64" height="64" viewBox="0 0 64 64" fill="none" xmlns="http://www.w3.org/2000/svg">
<path d="M46.9329 49.9529V43.9152L42.666 39.6489V45.6867L46.9329 49.9529Z" fill="white"/>
<path d="M51.1992 48.1812V53.3319C51.5282 53.3338 52.1624 53.2519 52.7032 52.7111C53.5378 51.8797 53.5378 50.5229 52.7083 49.6896L51.1992 48.1812Z" fill="#EADED0"/>
<path d="M12.7998 10.667C12.4702 10.667 11.8353 10.7464 11.2913 11.2904C10.7479 11.8344 10.666 12.4718 10.666 12.8008C10.666 13.1297 10.7473 13.7633 11.2913 14.3086L12.7998 15.8171V10.667Z" fill="#EADED0"/>
<path d="M38.401 41.4192V35.3834L34.1328 31.1152V37.1517L38.401 41.4192Z" fill="white"/>
<path d="M17.0664 20.0841L21.3326 24.3509V18.317L17.0664 14.0508V20.0841Z" fill="white"/>
<path d="M25.5996 28.6169L29.8665 32.8838V26.8486L25.5996 22.583V28.6169Z" fill="white"/>
<path d="M22.9493 13.8984C24.6158 12.2319 27.316 12.2319 28.9826 13.8984L50.1 35.0171C51.7666 36.6824 51.7666 39.3864 50.1 41.0517L53.117 44.0674C56.4501 40.7343 56.4501 35.3327 53.117 32.0008L32.0002 10.8815C28.6664 7.55025 23.2622 7.55025 19.9336 10.8795L22.9493 13.8984Z" fill="#79171D"/>
<path d="M41.0517 50.0996C39.3845 51.7662 36.6805 51.7662 35.0171 50.0996L13.8959 28.9809C12.2331 27.3163 12.2293 24.6123 13.8959 22.9451L10.8815 19.9307C7.55025 23.2619 7.55025 28.666 10.8795 31.9972L32.0002 53.1166C35.3307 56.4497 40.7343 56.4497 44.0674 53.1166L41.0517 50.0996Z" fill="#79171D"/>
<path d="M22.9492 13.8984C24.6158 12.2318 27.3159 12.2318 28.9825 13.8984L50.0999 35.0171C51.7665 36.6824 51.7665 39.3864 50.0999 41.0516L22.9492 13.8984Z" fill="#FFC547"/>
<path d="M41.0508 50.0999C39.3836 51.7664 36.6796 51.7664 35.0162 50.0999L13.895 28.9812C12.2322 27.3165 12.2284 24.6125 13.895 22.9453L41.0508 50.0999Z" fill="#FFC547"/>
<path d="M34.1328 37.1512L36.6928 39.7112V33.6747L34.1328 31.1147V37.1512Z" fill="#EADED0"/>
<path d="M25.5996 28.6169L28.1596 31.1776V25.1424L25.5996 22.583V28.6169Z" fill="#EADED0"/>
<path d="M42.666 45.6862L45.226 48.2462V42.2084L42.666 39.6484V45.6862Z" fill="#EADED0"/>
<path d="M12.6934 25.3648L38.6326 51.3034C39.5164 51.1786 40.3695 50.7812 41.0505 50.1002L13.8953 22.9463C13.215 23.6266 12.8175 24.4804 12.6934 25.3648Z" fill="#F4AF23"/>
<path d="M38.6328 51.303L41.9794 54.6495C42.7307 54.2578 43.4354 53.7478 44.0664 53.1161L41.0507 50.0991C40.3698 50.7807 39.5167 51.1782 38.6328 51.303Z" fill="#440004"/>
<path d="M9.34766 22.0193L12.6936 25.3646C12.8177 24.4801 13.2152 23.6264 13.8955 22.946L10.8811 19.9316C10.2501 20.562 9.73998 21.2673 9.34766 22.0193Z" fill="#440004"/>
<path d="M55.7255 46.6753L17.3249 8.27335C14.8295 5.77607 10.7758 5.77607 8.27527 8.27335C5.77543 10.7758 5.77543 14.8257 8.27527 17.3255L46.6753 55.7255C49.1751 58.2253 53.225 58.2253 55.7255 55.7274C58.226 53.225 58.226 49.1751 55.7255 46.6753ZM34.1338 31.115L38.402 35.3831V41.419L34.1338 37.1514V31.115ZM29.8669 32.8839L25.6001 28.617V22.5825L29.8669 26.8487V32.8839ZM21.3338 18.3169V24.3508L17.0669 20.0839V14.0506L21.3338 18.3169ZM10.6676 12.8001C10.6676 12.4711 10.7489 11.8337 11.2929 11.2897C11.8369 10.7457 12.4717 10.6663 12.8013 10.6663V15.8164L11.2929 14.3079C10.7489 13.7626 10.6676 13.1297 10.6676 12.8001ZM42.6676 45.6865V39.6487L46.9345 43.9149V49.9527L42.6676 45.6865ZM52.7047 52.7111C52.1639 53.2519 51.5297 53.3338 51.2007 53.3319V48.1812L52.7092 49.6897C53.5386 50.5229 53.5386 51.8804 52.7047 52.7111Z" fill="#79171D"/>
<path d="M17.0664 20.0841L19.6264 22.6441V16.6108L17.0664 14.0508V20.0841Z" fill="#EADED0"/>
</svg>
